<?xml version="1.0" encoding="UTF-8"?>
<!-- Created with Inkscape (http://www.inkscape.org/) -->
<svg width="112.45mm" height="75.098mm" version="1.1" viewBox="0 0 112.45 75.098" xmlns="http://www.w3.org/2000/svg" xmlns:cc="http://creativecommons.org/ns#" xmlns:dc="http://purl.org/dc/elements/1.1/" xmlns:rdf="http://www.w3.org/1999/02/22-rdf-syntax-ns#">
 <metadata>
  <rdf:RDF>
   <cc:Work rdf:about="">
    <dc:format>image/svg+xml</dc:format>
    <dc:type rdf:resource="http://purl.org/dc/dcmitype/StillImage"/>
    <dc:title/>
   </cc:Work>
  </rdf:RDF>
 </metadata>
 <g transform="translate(144.03 -73.036)">
  <g transform="matrix(1.5018 0 0 1.5018 72.269 -74.329)">
   <rect x="-144.03" y="98.128" width="74.877" height="50.006" fill="#2b3d88" fill-rule="evenodd"/>
   <g transform="matrix(.80469 0 0 .80469 -16.642 20.815)" fill-rule="evenodd">
    <path d="m-76.151 142.78c-2.9572-5.6589-5.2718-7.0782-7.4737-8.3721-0.97806-0.57473-1.9454-0.94675-1.8673-1.5283 0.0782-0.58157 0.48489-1.3673 0.9473-2.1372 0.4624-0.7698 0.58032-1.0688-0.35098-1.0366-0.9313 0.0322-2.152 0.98671-5.2153 0.70729-1.9825-0.18084-5.9902-4.5556-8.2961-7.5615-0.603-1.0817-0.2188-2.8356-0.2188-2.8356s-1.6537 0.93544-0.7517 2.7061c0.90203 1.7707 2.6894 4.0592 2.6894 4.0592s-5.6795-1.754-7.8845-3.3409c0 0 0.4917 1.2781 2.4997 2.2231 2.008 0.94494 4.3231 1.7481 4.3231 1.7481s-2.1025 0.18899-3.2364 0.56697c-1.1339 0.37797-2.4568 0.92131-2.4568 0.92131s3.5899-0.78085 5.6224-0.23623c2.0325 0.54461 5.1263 0.77957 6.9453 3.26 1.819 2.4805 1.9371 4.1814 2.4096 4.9846s0.66146 0.54334 1.0631-0.25986c0.4016-0.8032 0.63783-1.7718 1.0867-2.1497 0.44885-0.37797 1.365 0.10136 2.2915 0.75596 2.1734 1.5355 5.4807 2.9057 7.2997 8.41" fill="#2b3d88" stroke="#fff" stroke-linecap="round" stroke-linejoin="round" stroke-width=".26458"/>
    <circle cx="-87.701" cy="132.78" r="1.3196" fill="#fff"/>
    <path transform="matrix(.26458 0 0 .26458 -144.03 98.128)" d="m181.96 112.04c-0.79391-0.0299-1.0823 1.0335-0.38281 1.4102l12.086 6.877-1.459 2.5625 10.852 1.918-7.1914-8.3477-1.457 2.5586-12.086-6.875c-0.10984-0.0646-0.23395-0.1004-0.36133-0.10352z" color="#000000" color-rendering="auto" fill="#fefe04" image-rendering="auto" shape-rendering="auto" style="font-feature-settings:normal;font-variant-alternates:normal;font-variant-caps:normal;font-variant-ligatures:normal;font-variant-numeric:normal;font-variant-position:normal;isolation:auto;mix-blend-mode:normal;shape-padding:0;text-decoration-color:#000000;text-decoration-line:none;text-decoration-style:solid;text-indent:0;text-orientation:mixed;text-transform:none;white-space:normal"/>
   </g>
   <g transform="matrix(.72764 0 0 .72764 -22.867 21.548)" fill-rule="evenodd">
    <path d="m-76.151 142.78c-2.9572-5.6589-5.2718-7.0782-7.4737-8.3721-0.97806-0.57473-1.9454-0.94675-1.8673-1.5283 0.0782-0.58157 0.48489-1.3673 0.9473-2.1372 0.4624-0.7698 0.58032-1.0688-0.35098-1.0366-0.9313 0.0322-2.152 0.98671-5.2153 0.70729-1.9825-0.18084-5.9902-4.5556-8.2961-7.5615-0.603-1.0817-0.2188-2.8356-0.2188-2.8356s-1.6537 0.93544-0.7517 2.7061c0.90203 1.7707 2.6894 4.0592 2.6894 4.0592s-5.6795-1.754-7.8845-3.3409c0 0 0.4917 1.2781 2.4997 2.2231 2.008 0.94494 4.3231 1.7481 4.3231 1.7481s-2.1025 0.18899-3.2364 0.56697c-1.1339 0.37797-2.4568 0.92131-2.4568 0.92131s3.5899-0.78085 5.6224-0.23623c2.0325 0.54461 5.1263 0.77957 6.9453 3.26 1.819 2.4805 1.9371 4.1814 2.4096 4.9846s0.66146 0.54334 1.0631-0.25986c0.4016-0.8032 0.63783-1.7718 1.0867-2.1497 0.44885-0.37797 1.365 0.10136 2.2915 0.75596 2.1734 1.5355 5.4807 2.9057 7.2997 8.41" fill="#2b3d88" stroke="#fff" stroke-linecap="round" stroke-linejoin="round" stroke-width=".26458"/>
    <circle cx="-87.701" cy="132.78" r="1.3196" fill="#fff"/>
    <path transform="matrix(.26458 0 0 .26458 -144.03 98.128)" d="m181.96 112.04c-0.79391-0.0299-1.0823 1.0335-0.38281 1.4102l12.086 6.877-1.459 2.5625 10.852 1.918-7.1914-8.3477-1.457 2.5586-12.086-6.875c-0.10984-0.0646-0.23395-0.1004-0.36133-0.10352z" color="#000000" color-rendering="auto" fill="#fefe04" image-rendering="auto" shape-rendering="auto" style="font-feature-settings:normal;font-variant-alternates:normal;font-variant-caps:normal;font-variant-ligatures:normal;font-variant-numeric:normal;font-variant-position:normal;isolation:auto;mix-blend-mode:normal;shape-padding:0;text-decoration-color:#000000;text-decoration-line:none;text-decoration-style:solid;text-indent:0;text-orientation:mixed;text-transform:none;white-space:normal"/>
   </g>
   <g transform="matrix(1.0003 0 0 1.0003 5.8214 -7.5474)" fill-rule="evenodd">
    <path d="m-76.151 142.78c-2.9572-5.6589-5.2718-7.0782-7.4737-8.3721-0.97806-0.57473-1.9454-0.94675-1.8673-1.5283 0.0782-0.58157 0.48489-1.3673 0.9473-2.1372 0.4624-0.7698 0.58032-1.0688-0.35098-1.0366-0.9313 0.0322-2.152 0.98671-5.2153 0.70729-1.9825-0.18084-5.9902-4.5556-8.2961-7.5615-0.603-1.0817-0.2188-2.8356-0.2188-2.8356s-1.6537 0.93544-0.7517 2.7061c0.90203 1.7707 2.6894 4.0592 2.6894 4.0592s-5.6795-1.754-7.8845-3.3409c0 0 0.4917 1.2781 2.4997 2.2231 2.008 0.94494 4.3231 1.7481 4.3231 1.7481s-2.1025 0.18899-3.2364 0.56697c-1.1339 0.37797-2.4568 0.92131-2.4568 0.92131s3.5899-0.78085 5.6224-0.23623c2.0325 0.54461 5.1263 0.77957 6.9453 3.26 1.819 2.4805 1.9371 4.1814 2.4096 4.9846s0.66146 0.54334 1.0631-0.25986c0.4016-0.8032 0.63783-1.7718 1.0867-2.1497 0.44885-0.37797 1.365 0.10136 2.2915 0.75596 2.1734 1.5355 5.4807 2.9057 7.2997 8.41" fill="#2b3d88" stroke="#fff" stroke-linecap="round" stroke-linejoin="round" stroke-width=".26458"/>
    <circle cx="-87.701" cy="132.78" r="1.3196" fill="#fff"/>
    <path transform="matrix(.26458 0 0 .26458 -144.03 98.128)" d="m181.96 112.04c-0.79391-0.0299-1.0823 1.0335-0.38281 1.4102l12.086 6.877-1.459 2.5625 10.852 1.918-7.1914-8.3477-1.457 2.5586-12.086-6.875c-0.10984-0.0646-0.23395-0.1004-0.36133-0.10352z" color="#000000" color-rendering="auto" fill="#fefe04" image-rendering="auto" shape-rendering="auto" style="font-feature-settings:normal;font-variant-alternates:normal;font-variant-caps:normal;font-variant-ligatures:normal;font-variant-numeric:normal;font-variant-position:normal;isolation:auto;mix-blend-mode:normal;shape-padding:0;text-decoration-color:#000000;text-decoration-line:none;text-decoration-style:solid;text-indent:0;text-orientation:mixed;text-transform:none;white-space:normal"/>
   </g>
   <g transform="matrix(.70393 0 0 .70393 -33.05 41.399)" fill-rule="evenodd">
    <path d="m-76.151 142.78c-2.9572-5.6589-5.2718-7.0782-7.4737-8.3721-0.97806-0.57473-1.9454-0.94675-1.8673-1.5283 0.0782-0.58157 0.48489-1.3673 0.9473-2.1372 0.4624-0.7698 0.58032-1.0688-0.35098-1.0366-0.9313 0.0322-2.152 0.98671-5.2153 0.70729-1.9825-0.18084-5.9902-4.5556-8.2961-7.5615-0.603-1.0817-0.2188-2.8356-0.2188-2.8356s-1.6537 0.93544-0.7517 2.7061c0.90203 1.7707 2.6894 4.0592 2.6894 4.0592s-5.6795-1.754-7.8845-3.3409c0 0 0.4917 1.2781 2.4997 2.2231 2.008 0.94494 4.3231 1.7481 4.3231 1.7481s-2.1025 0.18899-3.2364 0.56697c-1.1339 0.37797-2.4568 0.92131-2.4568 0.92131s3.5899-0.78085 5.6224-0.23623c2.0325 0.54461 5.1263 0.77957 6.9453 3.26 1.819 2.4805 1.9371 4.1814 2.4096 4.9846s0.66146 0.54334 1.0631-0.25986c0.4016-0.8032 0.63783-1.7718 1.0867-2.1497 0.44885-0.37797 1.365 0.10136 2.2915 0.75596 2.1734 1.5355 5.4807 2.9057 7.2997 8.41" fill="#2b3d88" stroke="#fff" stroke-linecap="round" stroke-linejoin="round" stroke-width=".26458"/>
    <circle cx="-87.701" cy="132.78" r="1.3196" fill="#fff"/>
    <path transform="matrix(.26458 0 0 .26458 -144.03 98.128)" d="m181.96 112.04c-0.79391-0.0299-1.0823 1.0335-0.38281 1.4102l12.086 6.877-1.459 2.5625 10.852 1.918-7.1914-8.3477-1.457 2.5586-12.086-6.875c-0.10984-0.0646-0.23395-0.1004-0.36133-0.10352z" color="#000000" color-rendering="auto" fill="#fefe04" image-rendering="auto" shape-rendering="auto" style="font-feature-settings:normal;font-variant-alternates:normal;font-variant-caps:normal;font-variant-ligatures:normal;font-variant-numeric:normal;font-variant-position:normal;isolation:auto;mix-blend-mode:normal;shape-padding:0;text-decoration-color:#000000;text-decoration-line:none;text-decoration-style:solid;text-indent:0;text-orientation:mixed;text-transform:none;white-space:normal"/>
   </g>
   <g fill="none" stroke="#fff" stroke-linecap="round" stroke-linejoin="round">
    <g stroke-width=".39687">
     <path d="m-127.29 137.71c-1.47 2.0713-2.8898 4.8276-7.5671 4.8276-1.3898 0-2.0343-0.058-2.9545-1.2532-0.68721-0.89258-0.99651-1.8159-0.90419-2.0375 0.16705-0.40091 0.30068-0.13364 0.16705-0.43431-0.13364-0.30068-1.0357-1.3029-0.80181-1.5034 0.23386-0.20045 0.53454-0.26726 0.20045-0.4009-0.33409-0.13363 0.16704-1.1359 0.0334-1.637s-0.40091-2.2718-0.3675-2.5725c0.0334-0.30068-0.53454-0.43432-1.2027-0.40091-0.66817 0.0334-2.7395 0.16705-1.4032-2.4054 1.3364-2.5725 2.0379-3.7752 2.0379-5.0781 0-1.3029-0.36749-2.4388-0.36749-3.9422s0.70158-5.0113 4.0759-8.5192c3.3743-3.5079 7.6172-4.0759 12.395-4.009 4.7774 0.0668 8.7531 1.1693 10.891 5.2118 2.1382 4.0424 3.4411 10.023 1.0023 15.468-2.4388 5.4456-3.7752 8.3188-1.3029 16.771"/>
     <path d="m-133.68 146.03c1.5119-1.1339 2.7551-2.5048 2.5233-4.3825"/>
     <path d="m-138.31 125.52c1.2027 0.63476 2.372 0.93544 3.6081 0.96885"/>
     <path d="m-125.49 125.38c2.0713-2.2718 4.6772-2.3052 4.6772 1.9711 0 2.0178-0.92142 3.1224-1.805 3.8988-0.9891 0.869-1.9607 1.2669-2.1372 0.8787"/>
    </g>
    <g stroke-width=".19844">
     <path d="m-119.64 118.93 12.528 12.228"/>
     <path transform="rotate(30.051)" d="m-46.221 158.73a4.3902 13.171 0 0 1-4.3902 13.171 4.3902 13.171 0 0 1-4.3902-13.171 4.3902 13.171 0 0 1 4.3902-13.171 4.3902 13.171 0 0 1 4.3902 13.171zm-0.88738 0a3.5029 10.509 0 0 1-3.5029 10.509 3.5029 10.509 0 0 1-3.5029-10.509 3.5029 10.509 0 0 1 3.5029-10.509 3.5029 10.509 0 0 1 3.5029 10.509zm-0.68729 0a2.8156 8.4467 0 0 1-2.8156 8.4467 2.8156 8.4467 0 0 1-2.8156-8.4467 2.8156 8.4467 0 0 1 2.8156-8.4467 2.8156 8.4467 0 0 1 2.8156 8.4467zm-0.51658 0a2.299 6.897 0 0 1-2.299 6.897 2.299 6.897 0 0 1-2.299-6.897 2.299 6.897 0 0 1 2.299-6.897 2.299 6.897 0 0 1 2.299 6.897zm-0.50796 0a1.791 5.3731 0 0 1-1.791 5.3731 1.791 5.3731 0 0 1-1.791-5.3731 1.791 5.3731 0 0 1 1.791-5.3731 1.791 5.3731 0 0 1 1.791 5.3731zm-0.3616 0a1.4294 4.2883 0 0 1-1.4294 4.2883 1.4294 4.2883 0 0 1-1.4294-4.2883 1.4294 4.2883 0 0 1 1.4294-4.2883 1.4294 4.2883 0 0 1 1.4294 4.2883zm-0.34438 0a1.0851 3.2552 0 0 1-1.0851 3.2552 1.0851 3.2552 0 0 1-1.0851-3.2552 1.0851 3.2552 0 0 1 1.0851-3.2552 1.0851 3.2552 0 0 1 1.0851 3.2552zm-0.21524 0a0.86981 2.6094 0 0 1-0.86981 2.6094 0.86981 2.6094 0 0 1-0.86981-2.6094 0.86981 2.6094 0 0 1 0.86981-2.6094 0.86981 2.6094 0 0 1 0.86981 2.6094z"/>
     <path d="m-116.9 111.52 19.811-2.3386"/>
    </g>
   </g>
   <g fill-rule="evenodd">
    <path d="m-76.151 142.78c-2.9572-5.6589-5.2718-7.0782-7.4737-8.3721-0.97806-0.57473-1.9454-0.94675-1.8673-1.5283 0.0782-0.58157 0.48489-1.3673 0.9473-2.1372 0.4624-0.7698 0.58032-1.0688-0.35098-1.0366-0.9313 0.0322-2.152 0.98671-5.2153 0.70729-1.9825-0.18084-5.9902-4.5556-8.2961-7.5615-0.603-1.0817-0.2188-2.8356-0.2188-2.8356s-1.6537 0.93544-0.7517 2.7061c0.90203 1.7707 2.6894 4.0592 2.6894 4.0592s-5.6795-1.754-7.8845-3.3409c0 0 0.4917 1.2781 2.4997 2.2231 2.008 0.94494 4.3231 1.7481 4.3231 1.7481s-2.1025 0.18899-3.2364 0.56697c-1.1339 0.37797-2.4568 0.92131-2.4568 0.92131s3.5899-0.78085 5.6224-0.23623c2.0325 0.54461 5.1263 0.77957 6.9453 3.26 1.819 2.4805 1.9371 4.1814 2.4096 4.9846s0.66146 0.54334 1.0631-0.25986c0.4016-0.8032 0.63783-1.7718 1.0867-2.1497 0.44885-0.37797 1.365 0.10136 2.2915 0.75596 2.1734 1.5355 5.4807 2.9057 7.2997 8.41" fill="#2b3d88" stroke="#fff" stroke-linecap="round" stroke-linejoin="round" stroke-width=".26458"/>
    <circle cx="-87.701" cy="132.78" r="1.3196" fill="#fff"/>
    <path transform="matrix(.26458 0 0 .26458 -144.03 98.128)" d="m181.96 112.04c-0.79391-0.0299-1.0823 1.0335-0.38281 1.4102l12.086 6.877-1.459 2.5625 10.852 1.918-7.1914-8.3477-1.457 2.5586-12.086-6.875c-0.10984-0.0646-0.23395-0.1004-0.36133-0.10352z" color="#000000" color-rendering="auto" fill="#fefe04" image-rendering="auto" shape-rendering="auto" style="font-feature-settings:normal;font-variant-alternates:normal;font-variant-caps:normal;font-variant-ligatures:normal;font-variant-numeric:normal;font-variant-position:normal;isolation:auto;mix-blend-mode:normal;shape-padding:0;text-decoration-color:#000000;text-decoration-line:none;text-decoration-style:solid;text-indent:0;text-orientation:mixed;text-transform:none;white-space:normal"/>
   </g>
   <g fill="#fefe04">
    <path d="m-128.13 108.99c-0.22909-9e-3 -0.31232 0.29823-0.11046 0.40693l8.3689 5.1536-0.42101 0.73945 3.1314 0.55347-2.0752-2.4089-0.42045 0.73833-8.3689-5.1531c-0.0317-0.0186-0.0675-0.029-0.10424-0.0299z" color="#000000" color-rendering="auto" fill-rule="evenodd" image-rendering="auto" shape-rendering="auto" style="font-feature-settings:normal;font-variant-alternates:normal;font-variant-caps:normal;font-variant-ligatures:normal;font-variant-numeric:normal;font-variant-position:normal;isolation:auto;mix-blend-mode:normal;shape-padding:0;text-decoration-color:#000000;text-decoration-line:none;text-decoration-style:solid;text-indent:0;text-orientation:mixed;text-transform:none;white-space:normal"/>
    <g font-family="Arial" font-size="3.2155px" font-weight="bold" letter-spacing="0px" stroke-width="1.8551" word-spacing="0px">
     <text x="-138.2516" y="103.68615" style="line-height:1.14999998" xml:space="preserve"><tspan x="-138.2516" y="103.68615">electric</tspan><tspan x="-138.2516" y="107.38393">current</tspan></text>
     <text x="-115.1996" y="102.41662" style="line-height:1.14999998" xml:space="preserve"><tspan x="-115.1996" y="102.41662">magnetic</tspan><tspan x="-115.1996" y="106.1144">field</tspan></text>
     <text x="-89.074005" y="106.22521" style="line-height:1.14999998" xml:space="preserve"><tspan x="-89.074005" y="106.22521">intracellular</tspan><tspan x="-89.074005" y="109.92299">current</tspan><tspan x="-89.074005" y="113.62077">(dendrite)</tspan></text>
    </g>
   </g>
  </g>
 </g>
</svg>